<?xml version="1.0" encoding="utf-8"?>
<!-- Generator: Adobe Illustrator 16.0.0, SVG Export Plug-In . SVG Version: 6.00 Build 0)  -->
<!DOCTYPE svg PUBLIC "-//W3C//DTD SVG 1.1//EN" "http://www.w3.org/Graphics/SVG/1.1/DTD/svg11.dtd">
<svg version="1.1" id="Layer_1" xmlns="http://www.w3.org/2000/svg" xmlns:xlink="http://www.w3.org/1999/xlink" x="0px" y="0px"
	 width="375px" height="375px" viewBox="0 0 375 375" enable-background="new 0 0 375 375" xml:space="preserve">
<g>
	<defs>
		<rect id="SVGID_1_" y="-8.04" width="375" height="382.5"/>
	</defs>
	<clipPath id="SVGID_2_">
		<use xlink:href="#SVGID_1_"  overflow="visible"/>
	</clipPath>
	<g clip-path="url(#SVGID_2_)">
		<defs>
			<rect id="SVGID_3_" y="-8.04" width="375" height="375"/>
		</defs>
		<clipPath id="SVGID_4_">
			<use xlink:href="#SVGID_3_"  overflow="visible"/>
		</clipPath>
		<g clip-path="url(#SVGID_4_)">
			<defs>
				<rect id="SVGID_5_" y="-8.04" width="375" height="375"/>
			</defs>
			<clipPath id="SVGID_6_">
				<use xlink:href="#SVGID_5_"  overflow="visible"/>
			</clipPath>
			<g clip-path="url(#SVGID_6_)">
				<defs>
					
						<rect id="SVGID_7_" x="155.25" y="27.089" transform="matrix(-0.5802 -0.8145 0.8145 -0.5802 286.1354 365.9192)" width="164.25" height="164.25"/>
				</defs>
				<clipPath id="SVGID_8_">
					<use xlink:href="#SVGID_7_"  overflow="visible"/>
				</clipPath>
				<path clip-path="url(#SVGID_8_)" fill="#F6D44C" d="M266.632,8.733l75.27,105.672c5.528,7.763,3.718,18.537-4.044,24.066
					l-105.672,75.27c-7.763,5.529-18.537,3.719-24.066-4.044L132.85,104.024c-5.529-7.763-3.719-18.537,4.043-24.066l105.672-75.27
					C250.328-0.84,261.103,0.971,266.632,8.733"/>
			</g>
		</g>
	</g>
</g>
<g>
	<defs>
		<rect id="SVGID_9_" y="-8.04" width="375" height="382.5"/>
	</defs>
	<clipPath id="SVGID_10_">
		<use xlink:href="#SVGID_9_"  overflow="visible"/>
	</clipPath>
	<g clip-path="url(#SVGID_10_)">
		<defs>
			<rect id="SVGID_11_" y="-8.04" width="375" height="375"/>
		</defs>
		<clipPath id="SVGID_12_">
			<use xlink:href="#SVGID_11_"  overflow="visible"/>
		</clipPath>
		<g clip-path="url(#SVGID_12_)">
			<defs>
				<rect id="SVGID_13_" y="-8.04" width="375" height="375"/>
			</defs>
			<clipPath id="SVGID_14_">
				<use xlink:href="#SVGID_13_"  overflow="visible"/>
			</clipPath>
			<g clip-path="url(#SVGID_14_)">
				<defs>
					
						<rect id="SVGID_15_" x="67.079" y="55.181" transform="matrix(-0.5724 -0.82 0.82 -0.5724 122.0123 338.2429)" width="164.25" height="164.25"/>
				</defs>
				<clipPath id="SVGID_16_">
					<use xlink:href="#SVGID_15_"  overflow="visible"/>
				</clipPath>
				<path clip-path="url(#SVGID_16_)" fill="#FFDE59" d="M179.417,37.108l74.258,106.385c5.455,7.814,3.542,18.571-4.272,24.026
					l-106.386,74.257c-7.814,5.455-18.571,3.542-24.026-4.272L44.732,131.12c-5.455-7.815-3.542-18.572,4.273-24.026l106.385-74.258
					C163.206,27.38,173.962,29.293,179.417,37.108"/>
			</g>
		</g>
	</g>
</g>
<g>
	<defs>
		<rect id="SVGID_17_" y="-8.04" width="375" height="382.5"/>
	</defs>
	<clipPath id="SVGID_18_">
		<use xlink:href="#SVGID_17_"  overflow="visible"/>
	</clipPath>
	<g clip-path="url(#SVGID_18_)">
		<defs>
			<rect id="SVGID_19_" y="-8.04" width="375" height="375"/>
		</defs>
		<clipPath id="SVGID_20_">
			<use xlink:href="#SVGID_19_"  overflow="visible"/>
		</clipPath>
		<g clip-path="url(#SVGID_20_)">
			<defs>
				<rect id="SVGID_21_" y="-8.04" width="375" height="375"/>
			</defs>
			<clipPath id="SVGID_22_">
				<use xlink:href="#SVGID_21_"  overflow="visible"/>
			</clipPath>
			<g clip-path="url(#SVGID_22_)">
				<defs>
					
						<rect id="SVGID_23_" x="-33.036" y="226.944" transform="matrix(-0.5673 -0.8235 0.8235 -0.5673 -14.545 465.7451)" width="296.25" height="19.5"/>
				</defs>
				<clipPath id="SVGID_24_">
					<use xlink:href="#SVGID_23_"  overflow="visible"/>
				</clipPath>
				<g clip-path="url(#SVGID_24_)">
					<defs>
						
							<rect id="SVGID_25_" x="-33.036" y="226.944" transform="matrix(-0.5673 -0.8235 0.8235 -0.5673 -14.545 465.7451)" width="296.25" height="19.5"/>
					</defs>
					<clipPath id="SVGID_26_">
						<use xlink:href="#SVGID_25_"  overflow="visible"/>
					</clipPath>
					<path clip-path="url(#SVGID_26_)" fill="#FFFFFF" d="M200.106,342.926L46.129,119.4c-3.037-4.409-9.094-5.506-13.528-2.452
						c-4.435,3.055-5.567,9.105-2.53,13.514l153.977,223.525c3.037,4.409,9.094,5.507,13.529,2.452
						C202.01,353.385,203.143,347.334,200.106,342.926z"/>
				</g>
			</g>
		</g>
	</g>
</g>
</svg>
