<svg id="svg" xmlns="http://www.w3.org/2000/svg" xmlns:xlink="http://www.w3.org/1999/xlink" width="400" height="400" viewBox="0, 0, 400,400"><g id="svgg"><path id="path0" d="M191.406 49.690 C 160.711 52.248,135.208 61.386,111.665 78.262 C 95.282 90.006,91.196 96.698,96.535 103.042 C 99.422 106.474,101.271 106.687,124.398 106.252 L 145.281 105.859 147.205 103.906 C 148.264 102.832,152.772 95.625,157.224 87.891 L 165.319 73.828 170.666 72.482 C 187.980 68.125,208.588 68.080,228.937 72.355 L 234.828 73.592 242.987 87.773 C 247.474 95.572,252.092 102.920,253.247 104.102 L 255.349 106.250 273.288 106.250 L 291.227 106.250 296.122 111.483 C 309.246 125.513,319.482 143.245,325.001 161.515 L 326.709 167.170 322.970 173.624 C 305.633 203.547,305.630 196.449,322.988 226.408 L 326.746 232.893 324.334 240.502 C 318.889 257.680,307.710 276.412,295.006 289.648 L 291.069 293.750 273.209 293.750 L 255.349 293.750 253.238 295.898 C 252.077 297.080,247.519 304.265,243.108 311.865 C 234.144 327.310,235.595 326.071,223.438 328.660 C 213.975 330.675,185.962 330.692,176.953 328.688 C 163.985 325.804,165.925 327.430,156.912 311.898 C 152.490 304.280,147.923 297.080,146.762 295.898 L 144.651 293.750 126.678 293.750 L 108.705 293.750 103.536 288.086 C 91.801 275.229,81.120 257.044,75.847 240.944 L 73.280 233.105 81.952 218.001 C 93.099 198.587,93.202 201.625,80.664 179.696 C 69.835 160.754,68.617 159.383,62.621 159.378 C 53.613 159.370,49.867 171.432,49.881 200.391 C 49.928 299.175,142.453 370.121,238.828 345.272 C 341.368 318.834,383.736 194.584,319.439 108.875 C 290.341 70.087,237.846 45.821,191.406 49.690 M172.334 154.883 C 168.134 158.628,147.415 196.141,147.415 200.000 C 147.415 203.859,168.134 241.372,172.334 245.117 C 174.294 246.865,174.458 246.875,200.031 246.875 L 225.757 246.875 228.098 244.727 C 232.078 241.076,253.125 203.461,253.125 200.000 C 253.125 196.539,232.078 158.924,228.098 155.273 L 225.757 153.125 200.031 153.125 C 174.458 153.125,174.294 153.135,172.334 154.883 " stroke="none" fill="#161614" fill-rule="evenodd"></path></g></svg>